# xmcd
#
# Track frame offsets:
#	150
#	20417
#	41882
#	68503
#	80038
#	97310
#	122569
#	180836
#	212330
#	255295
#
# Disc length: 3807 seconds
#
# Revision: 0
# Processed by: cddbd v1.5.2PL0 Copyright (c) Steve Scherf et al.
# Submitted via: MusicManager 7.3.0.0 
#
DISCID=7b0edd0a
DTITLE=Various Artist - Willie Dixon and Jimmy Reed - Blue Legends Captured Live
DYEAR=1169
DGENRE=blues
TTITLE0=Willie Dixon - Sttin' and Crying The Blues 
TTITLE1=Willie Dixon - Spoonful
TTITLE2=Willie Dixon - I Just Want To Make Love To You
TTITLE3=Willie Dixon - Chicago Here I Come
TTITLE4=Willie Dixon - Tore Down
TTITLE5=Willie Dixon - Roach Stew
TTITLE6=Jimmy Reed - Big Boss Man
TTITLE7=Jimmy Reed - Stop Light
TTITLE8=Jimmy Reed - You Don't Have To Go 
TTITLE9=Jimmy Reed - Bright Lights Big City
EXTD=
EXTT0=
EXTT1=
EXTT2=
EXTT3=
EXTT4=
EXTT5=
EXTT6=
EXTT7=
EXTT8=
EXTT9=
PLAYORDER=
